Coordinates
version=1
nRows=18
nColumns=22
inDegrees=yes

Units are S.I. units (second, meters, Newtons, ...)
If the header above contains a line with 'inDegrees', this indicates whether rotational values are in degrees (yes) or radians (no).

endheader
time	pelvis_tilt	pelvis_list	pelvis_rotation	pelvis_tx	pelvis_ty	pelvis_tz	hip_flexion_r	hip_adduction_r	hip_rotation_r	knee_angle_r	ankle_angle_r	subtalar_angle_r	hip_flexion_l	hip_adduction_l	hip_rotation_l	knee_angle_l	ankle_angle_l	subtalar_angle_l	lumbar_extension	lumbar_bending	lumbar_rotation
      4.63000000	      0.79916539	     -7.57539430	    -84.14123860	      0.36375113	      0.94161756	      0.61558302	      4.06580295	      0.32312362	     -1.03549171	    -52.36824472	      4.11995914	     12.47155356	      7.46588142	      1.04394790	     -6.87894350	    -25.47086112	     17.80061527	    -14.15454689	    -13.29156842	      1.60865349	    -10.73395728
      4.64000000	      0.72723723	     -7.59070665	    -84.28380767	      0.36452687	      0.94229365	      0.61979338	      4.68546356	      0.19997262	     -1.35408576	    -51.52711225	      5.50430894	     11.67605313	      7.01830451	      1.00655696	     -6.98845739	    -25.22281805	     17.92347643	    -14.20434854	    -13.40591728	      1.71874343	    -10.90085260
      4.65000000	      0.70187873	     -7.60734703	    -84.42915032	      0.36526607	      0.94295890	      0.62400825	      5.22447715	      0.01072015	     -1.73020239	    -50.52925950	      6.84100442	     10.86774221	      6.55070172	      1.01407888	     -7.14153881	    -24.94912453	     18.05726036	    -14.22716447	    -13.50335100	      1.77318307	    -11.08005569
      4.66000000	      0.66717093	     -7.62820181	    -84.57389466	      0.36594938	      0.94361311	      0.62819101	      5.68094034	     -0.17434102	     -2.17129353	    -49.37361085	      8.10517777	      9.96017736	      6.08042945	      1.00938917	     -7.28960774	    -24.67214838	     18.16940845	    -14.24903911	    -13.59007870	      1.83796576	    -11.22396556
      4.67000000	      0.64474330	     -7.64631755	    -84.70374778	      0.36658642	      0.94422490	      0.63233019	      6.06368729	     -0.38063073	     -2.68656173	    -48.09080105	      9.29421575	      9.11048753	      5.62032650	      1.01712498	     -7.42487100	    -24.40159302	     18.30288099	    -14.25111264	    -13.66050278	      1.88543911	    -11.36719195
      4.68000000	      0.58646612	     -7.65150299	    -84.81697364	      0.36713684	      0.94477863	      0.63637317	      6.38341522	     -0.53386963	     -3.24145114	    -46.67458407	     10.39400668	      8.21674414	      5.20946413	      0.97827023	     -7.55429986	    -24.17450164	     18.41503971	    -14.25237139	    -13.70801282	      1.96834116	    -11.48927717
      4.69000000	      0.53761148	     -7.65234752	    -84.88740535	      0.36766013	      0.94526474	      0.64031665	      6.63547027	     -0.69848859	     -3.87438509	    -45.16993622	     11.39828750	      7.47861755	      4.82290752	      0.95295710	     -7.62350672	    -23.96565106	     18.61836352	    -14.21959490	    -13.74874447	      2.03942447	    -11.63162441
      4.70000000	      0.44188556	     -7.63194892	    -84.96196064	      0.36803676	      0.94568138	      0.64414081	      6.84004176	     -0.77515126	     -4.47404241	    -43.56221458	     12.31194814	      6.63631583	      4.50277407	      0.86422042	     -7.70873459	    -23.81490519	     18.74046969	    -14.21123349	    -13.76108275	      2.15098404	    -11.74122888
      4.71000000	      0.34341159	     -7.61082453	    -84.99848543	      0.36838822	      0.94603876	      0.64785181	      6.97808813	     -0.84001048	     -5.11959256	    -41.89560820	     13.10759022	      5.94550325	      4.20579978	      0.77605329	     -7.72943769	    -23.68591771	     18.92729410	    -14.19674467	    -13.77381838	      2.26698749	    -11.84580307
      4.72000000	      0.23907510	     -7.58864837	    -85.02686439	      0.36865857	      0.94634686	      0.65147387	      7.05503799	     -0.87468567	     -5.75424104	    -40.18674010	     13.78489984	      5.27666565	      3.92897944	      0.67580194	     -7.74337510	    -23.57966393	     19.12618574	    -14.19457364	    -13.78118012	      2.38511273	    -11.94184870
      4.73000000	      0.14368045	     -7.56720451	    -85.05281136	      0.36884547	      0.94662074	      0.65501422	      7.07368223	     -0.89231559	     -6.35954380	    -38.46090828	     14.34451586	      4.57625842	      3.65832029	      0.57685701	     -7.77448838	    -23.47505275	     19.31169195	    -14.20039441	    -13.78782484	      2.49027417	    -12.01911882
      4.74000000	      0.05900835	     -7.56048641	    -85.06773757	      0.36897973	      0.94687169	      0.65847017	      7.02667201	     -0.90524621	     -6.97127419	    -36.75250188	     14.74961474	      3.93958614	      3.38134373	      0.48431565	     -7.78730223	    -23.37973434	     19.51299516	    -14.19115067	    -13.81126632	      2.58103263	    -12.06093509
      4.75000000	     -0.00283849	     -7.56285650	    -85.08260864	      0.36902844	      0.94710051	      0.66185417	      6.92827832	     -0.92013803	     -7.56259937	    -35.09489100	     15.00305718	      3.32526454	      3.09451642	      0.40685450	     -7.81446853	    -23.27794375	     19.70392312	    -14.16366932	    -13.84152542	      2.64110740	    -12.08428702
      4.76000000	     -0.03669905	     -7.57629423	    -85.09770540	      0.36899209	      0.94731292	      0.66516489	      6.78330116	     -0.94184275	     -8.12552533	    -33.52089321	     15.10708005	      2.70926909	      2.79437266	      0.35048008	     -7.85464638	    -23.16801144	     19.86843402	    -14.11407581	    -13.88121359	      2.66353136	    -12.08856810
      4.77000000	     -0.04746661	     -7.59653374	    -85.10353483	      0.36888528	      0.94749956	      0.66838827	      6.60293807	     -0.96595905	     -8.66327610	    -32.06194342	     15.07013481	      2.10440209	      2.49262067	      0.30921891	     -7.90441936	    -23.05919010	     20.00826064	    -14.04060304	    -13.92753059	      2.65786300	    -12.08446007
      4.78000000	     -0.04154807	     -7.63059108	    -85.08972637	      0.36873486	      0.94768071	      0.67152716	      6.38077781	     -0.98916358	     -9.19046656	    -30.74125331	     14.86687731	      1.58043381	      2.18039594	      0.28168232	     -7.93195974	    -22.94610347	     20.15093370	    -13.94802210	    -13.98522996	      2.63254625	    -12.06869889
      4.79000000	     -0.01654697	     -7.66108553	    -85.06107960	      0.36851807	      0.94783205	      0.67457392	      6.14835222	     -1.01631252	     -9.69389635	    -29.59926919	     14.51963867	      1.02781618	      1.88367719	      0.26544291	     -7.96749044	    -22.84168873	     20.26513834	    -13.83056181	    -14.03452208	      2.58084362	    -12.05907056
      4.80000000	     -0.00239622	     -7.69141251	    -84.99777575	      0.36828070	      0.94797387	      0.67752271	      5.89005972	     -1.01247683	    -10.16477202	    -28.62450091	     14.09994727	      0.64674041	      1.60369007	      0.23641960	     -7.94554864	    -22.74553634	     20.37748656	    -13.72615556	    -14.07608039	      2.54708115	    -12.06648447
